# xmcd
#
# Track frame offsets:
#	150
#	23715
#	40042
#	54941
#	71420
#	88824
#	107243
#	123298
#	140291
#	157850
#	175514
#	193307
#	209771
#	228939
#	246872
#	266983
#	284607
#	302829
#	319298
#
# Disc length: 4491 seconds
#
# Revision: 0
# Processed by: cddbd v1.5.2PL0 Copyright (c) Steve Scherf et al.
# Submitted via: audiograbber 1.83.01
#
DISCID=13118913
DTITLE=Various Artist - Urban Radio 2007/01
DYEAR=2007
DGENRE=Hip Hop/Rap
TTITLE0=P. Diddy - Diddy Rock Feat. Timbaland, Twista and Shawnna
TTITLE1=Common - A Dream Feat. Will.i.am
TTITLE2=Deepside - Let's Make Love Feat. Papoose
TTITLE3=2pac - Pac's Life Feat. T.i. and Ashanti
TTITLE4=Bossman - A-Yo
TTITLE5=Pretty Ricky - On The Hotline
TTITLE6=Trick Daddy - Bet That Feat. Chamillionaire and Goldrush
TTITLE7=Da Prince Baby Boy - The Way I Live Feat. Lil Boosie
TTITLE8=Musiq - Buddy
TTITLE9=Lil Flip - Ghetto Mindstate Feat. Lyfe Jennings
TTITLE10=Jibbs - Go Too Far Feat. Melody
TTITLE11=Piles - Got 'Em Hatin'
TTITLE12=Robin Thicke - Lost Without U
TTITLE13=Rich Boy - Throw Some D's
TTITLE14=B.G. and The Chopper City Boyz - Make 'Em Mad
TTITLE15=Tanya Stephens - These Streets
TTITLE16=Yung Joc - 1st Time Rmx feat. Marques Houston and Trey Songz
TTITLE17=J. Valentine - She Worth The Trouble
TTITLE18=LeToya - Obvious
EXTD=
EXTT0=
EXTT1=
EXTT2=
EXTT3=
EXTT4=
EXTT5=
EXTT6=
EXTT7=
EXTT8=
EXTT9=
EXTT10=
EXTT11=
EXTT12=
EXTT13=
EXTT14=
EXTT15=
EXTT16=
EXTT17=
EXTT18=
PLAYORDER=
